HIERARCHY
ROOT Hips
{
	OFFSET 0.000000 0.000000 0.000000
	CHANNELS 6 Xposition Yposition Zposition Zrotation Yrotation Xrotation 
	JOINT LHipJoint
	{
		OFFSET 0.000000 0.000000 0.000000
		CHANNELS 3 Zrotation Yrotation Xrotation
		JOINT LeftUpLeg
		{
			OFFSET 1.363060 -1.794630 0.839290
			CHANNELS 3 Zrotation Yrotation Xrotation
			JOINT LeftLeg
			{
				OFFSET 2.448110 -6.726130 0.000000
				CHANNELS 3 Zrotation Yrotation Xrotation
				JOINT LeftFoot
				{
					OFFSET 2.562200 -7.039590 0.000000
					CHANNELS 3 Zrotation Yrotation Xrotation
					JOINT LeftToeBase
					{
						OFFSET 0.157640 -0.433110 2.322550
						CHANNELS 3 Zrotation Yrotation Xrotation
						End Site
						{
							OFFSET 0.000000 0.000000 0.000000
						}
					}
				}
			}
		}
	}
	JOINT RHipJoint
	{
		OFFSET 0.000000 0.000000 0.000000
		CHANNELS 3 Zrotation Yrotation Xrotation
		JOINT RightUpLeg
		{
			OFFSET -1.305520 -1.794630 0.839290
			CHANNELS 3 Zrotation Yrotation Xrotation
			JOINT RightLeg
			{
				OFFSET -2.542530 -6.985550 0.000000
				CHANNELS 3 Zrotation Yrotation Xrotation
				JOINT RightFoot
				{
					OFFSET -2.568260 -7.056230 0.000000
					CHANNELS 3 Zrotation Yrotation Xrotation
					JOINT RightToeBase
					{
						OFFSET -0.164730 -0.452590 2.363150
						CHANNELS 3 Zrotation Yrotation Xrotation
						End Site
						{
							OFFSET 0.000000 0.000000 0.000000
						}
					}
				}
			}
		}
	}
	JOINT LowerBack
	{
		OFFSET 0.000000 0.000000 0.000000
		CHANNELS 3 Zrotation Yrotation Xrotation
		JOINT Spine
		{
			OFFSET 0.028270 2.035590 -0.193380
			CHANNELS 3 Zrotation Yrotation Xrotation
			JOINT Spine1
			{
				OFFSET 0.056720 2.048850 -0.042750
				CHANNELS 3 Zrotation Yrotation Xrotation
				JOINT Neck
				{
					OFFSET 0.000000 0.000000 0.000000
					CHANNELS 3 Zrotation Yrotation Xrotation
					JOINT Neck1
					{
						OFFSET -0.054170 1.746240 0.172020
						CHANNELS 3 Zrotation Yrotation Xrotation
						JOINT Head
						{
							OFFSET 0.104070 1.761360 -0.123970
							CHANNELS 3 Zrotation Yrotation Xrotation
							End Site
							{
								OFFSET 0.000000 0.000000 0.000000
							}
						}
					}
				}
				JOINT LeftShoulder
				{
					OFFSET 0.000000 0.000000 0.000000
					CHANNELS 3 Zrotation Yrotation Xrotation
					JOINT LeftArm
					{
						OFFSET 3.362410 1.200890 -0.311210
						CHANNELS 3 Zrotation Yrotation Xrotation
						JOINT LeftForeArm
						{
							OFFSET 4.983000 -0.000000 -0.000000
							CHANNELS 3 Zrotation Yrotation Xrotation
							JOINT LeftHand
							{
								OFFSET 3.483560 -0.000000 -0.000000
								CHANNELS 3 Zrotation Yrotation Xrotation
								JOINT LeftFingerBase
								{
									OFFSET 0.000000 0.000000 0.000000
									CHANNELS 3 Zrotation Yrotation Xrotation
									JOINT LeftHandIndex1
									{
										OFFSET 0.715260 -0.000000 -0.000000
										CHANNELS 3 Zrotation Yrotation Xrotation
										End Site
										{
											OFFSET 0.000000 0.000000 0.000000
										}
									}
								}
								JOINT LThumb
								{
									OFFSET 0.000000 0.000000 0.000000
									CHANNELS 3 Zrotation Yrotation Xrotation
									End Site
									{
										OFFSET 0.000000 0.000000 0.000000
									}
								}
							}
						}
					}
				}
				JOINT RightShoulder
				{
					OFFSET 0.000000 0.000000 0.000000
					CHANNELS 3 Zrotation Yrotation Xrotation
					JOINT RightArm
					{
						OFFSET -3.136600 1.374050 -0.404650
						CHANNELS 3 Zrotation Yrotation Xrotation
						JOINT RightForeArm
						{
							OFFSET -5.241900 -0.000000 -0.000000
							CHANNELS 3 Zrotation Yrotation Xrotation
							JOINT RightHand
							{
								OFFSET -3.444170 -0.000000 -0.000000
								CHANNELS 3 Zrotation Yrotation Xrotation
								JOINT RightFingerBase
								{
									OFFSET 0.000000 0.000000 0.000000
									CHANNELS 3 Zrotation Yrotation Xrotation
									JOINT RightHandIndex1
									{
										OFFSET -0.622530 -0.000000 -0.000000
										CHANNELS 3 Zrotation Yrotation Xrotation
										End Site
										{
											OFFSET 0.000000 0.000000 0.000000
										}
									}
								}
								JOINT RThumb
								{
									OFFSET 0.000000 0.000000 0.000000
									CHANNELS 3 Zrotation Yrotation Xrotation
									End Site
									{
										OFFSET 0.000000 0.000000 0.000000
									}
								}
							}
						}
					}
				}
			}
		}
	}
}
MOTION
Frames: 7
Frame Time: 0.008333
11.077051 17.759173 -32.000170 -3.144128 -13.081670 1.872652 -7.069395 -0.564972 -1.329200 -7.015567 -3.877903 -28.397677 -2.257276 6.198677 14.159697 -5.817466 18.821737 10.963730 0.292900 -3.480000 -9.618100 5.290744 -3.718120 6.579660 19.574261 4.468051 6.158016 2.306303 -2.063243 11.428569 -1.213858 2.148693 4.342854 -0.052700 -1.480900 4.073200 7.101417 2.554531 7.021194 1.331359 3.767093 -1.994534 -1.712821 2.427490 0.949205 -2.189561 4.104680 -11.048021 -1.852123 5.687431 2.672228 -1.927500 2.547400 2.972300 -3.705565 -1.950685 -0.019573 -91.106188 13.064686 -10.478094 7.050941 -16.250902 -1.834751 -0.798583 -0.612304 -12.834350 22.644506 20.810320 8.927700 -7.125000 0.000000 0.000000 -5.275500 52.751200 -1.008500 7.339909 2.976002 0.369690 65.262058 19.866204 39.511732 -26.538758 37.758732 -10.162772 0.662702 -0.748012 -17.100222 -26.749382 15.690119 -8.363100 7.125000 0.000000 0.000000 0.433500 -11.405900 0.339200 
11.068865 17.737060 -31.805088 -2.999167 -13.323206 1.772196 -7.097022 -0.523936 -1.314090 -7.346718 -3.797991 -28.315778 -2.268065 6.231118 14.268585 -5.876037 18.859896 10.514993 0.200300 -2.882100 -7.950800 5.196057 -3.822816 6.642980 19.356907 4.465554 6.983080 2.309873 -1.973156 11.227192 -1.183327 2.090751 4.574057 -0.012500 -0.722700 1.986000 6.879001 2.639766 6.626627 1.329165 3.812260 -1.809592 -1.524676 2.466681 1.689385 -2.207961 4.160990 -11.591531 -1.854119 5.803015 2.537190 -1.923500 2.592100 3.013200 -3.701757 -1.889953 0.008602 -91.290755 12.410182 -10.713526 7.008986 -16.175926 -1.825048 -0.798657 -0.605702 -12.587283 22.687212 20.982680 9.011300 -7.125000 0.000000 0.000000 -5.286700 52.936500 -1.034600 7.348556 2.946344 0.403396 65.169767 20.544193 39.232897 -26.359883 37.586973 -10.048128 0.641250 -0.735163 -16.808526 -26.098019 15.396638 -7.980300 7.125000 0.000000 0.000000 0.842400 -11.855900 0.651400 
11.060360 17.727386 -31.608517 -2.883004 -13.458125 1.775313 -7.108979 -0.509364 -1.298795 -7.716332 -3.649046 -28.357102 -2.252731 6.310285 14.505611 -5.852186 18.819386 10.511674 0.232800 -3.105700 -8.573200 5.134497 -3.879686 6.693297 19.118049 4.368275 7.354461 2.258441 -2.076799 11.555962 -1.266888 2.384729 4.650176 -0.002400 -0.315400 0.866500 6.733797 2.745962 6.472421 1.299502 3.924163 -1.784041 -1.504812 2.528152 1.828047 -2.182486 4.163323 -11.681212 -1.693310 5.776711 2.259593 -1.869600 2.582000 2.902200 -3.710965 -1.883969 0.019239 -91.261231 12.162319 -11.025593 6.855396 -15.928433 -1.772865 -0.801587 -0.577736 -11.812943 22.535910 20.447528 8.728100 -7.125000 0.000000 0.000000 -5.284600 52.330900 -0.955800 7.352345 2.936107 0.410282 65.178150 20.699021 39.018560 -26.032532 37.304608 -9.863690 0.643605 -0.746904 -16.536461 -26.243417 15.511109 -8.090800 7.125000 0.000000 0.000000 0.755600 -11.695900 0.586800 
11.051218 17.721751 -31.404505 -2.676553 -13.590678 1.882152 -7.094408 -0.515165 -1.279962 -8.290284 -3.240582 -28.590623 -2.212553 6.473324 14.966598 -5.659853 18.514353 10.969677 0.347800 -3.789100 -10.484100 5.078616 -3.947227 6.765911 18.762500 4.379754 7.725494 2.233979 -2.110657 11.683546 -1.282698 2.458748 5.053089 -0.000400 -0.135600 0.372600 6.537371 2.843755 6.285070 1.229988 4.021311 -1.845724 -1.623274 2.582497 1.711578 -1.956796 4.179017 -11.508744 -1.547536 5.716123 1.946326 -1.869400 2.558900 2.734400 -3.723340 -1.894236 0.019928 -91.101449 12.153784 -11.206995 6.735918 -15.737416 -1.730652 -0.805819 -0.554063 -11.305758 22.516407 19.793528 8.454300 -7.125000 0.000000 0.000000 -5.115900 51.623200 -0.836300 7.341991 2.929724 0.406154 65.414175 20.555372 39.020281 -25.734818 37.061246 -9.696498 0.655287 -0.762936 -16.404264 -26.625365 15.692000 -8.323400 7.125000 0.000000 0.000000 0.516400 -11.415400 0.404000 
11.039523 17.699638 -31.196878 -2.725863 -13.764053 2.041985 -7.048907 -0.504472 -1.247924 -8.538247 -3.036841 -28.684124 -2.121926 6.714525 15.648084 -5.449792 18.127864 11.380390 0.395900 -4.040200 -11.189800 5.014375 -3.980973 6.795325 18.703545 4.292815 7.981953 2.175529 -2.244935 12.103190 -1.323214 2.646554 5.450821 -0.001000 0.204400 -0.561600 6.514991 2.889128 5.979833 1.212565 4.054362 -1.890129 -1.667130 2.602874 1.703840 -1.751431 4.245796 -11.335633 -1.445725 5.738024 1.697073 -1.879700 2.574400 2.591500 -3.717528 -1.897987 0.022064 -91.071501 12.158323 -11.134082 6.727943 -15.731005 -1.727629 -0.802248 -0.557050 -11.565721 22.445357 19.732329 8.401400 -7.125000 0.000000 0.000000 -5.171200 51.546300 -0.835600 7.336584 2.912736 0.404037 65.703840 20.393423 39.266393 -25.520854 36.891112 -9.564409 0.666581 -0.762106 -16.325700 -26.798313 15.535000 -8.314100 7.125000 0.000000 0.000000 0.378600 -11.557200 0.295000 
11.028361 17.664024 -30.988507 -2.989123 -13.855476 2.281891 -6.992555 -0.483106 -1.238645 -8.496845 -3.161016 -28.643866 -1.994000 6.996619 16.438025 -5.303226 17.843802 11.678943 0.313800 -3.601200 -9.957300 4.941078 -3.995984 6.796660 18.896736 4.151978 8.236230 2.104900 -2.404054 12.599930 -1.387894 2.927595 5.504823 -0.019900 0.911200 -2.504500 6.660987 2.933960 5.446822 1.255978 4.075827 -1.881980 -1.557020 2.619707 1.975224 -1.827729 4.247906 -11.306413 -1.249511 5.726048 1.502575 -1.793700 2.575200 2.468900 -3.705722 -1.880239 0.031600 -91.193797 12.012650 -11.128895 6.697032 -15.696729 -1.721858 -0.798076 -0.563893 -11.601641 22.343253 20.019655 8.475600 -7.125000 0.000000 0.000000 -5.359800 51.837700 -0.904600 7.344399 2.884649 0.406042 65.797586 20.333536 39.351083 -25.246308 36.668917 -9.405299 0.681089 -0.755767 -16.342217 -26.932628 15.375166 -8.287800 7.125000 0.000000 0.000000 0.263200 -11.713100 0.204300 
11.013796 17.617459 -30.780880 -2.864330 -13.782988 2.322965 -6.977678 -0.448886 -1.237822 -8.871886 -3.219403 -28.664982 -1.833950 7.331837 17.349708 -5.279321 17.958690 12.291277 0.295500 -3.495500 -9.661600 4.859592 -4.062013 6.847561 18.772278 4.129052 8.706968 2.044066 -2.519251 12.948528 -1.383535 2.926143 5.265351 -0.092300 1.959900 -5.394700 6.331227 2.916066 5.078934 1.271199 4.004074 -1.874953 -1.281365 2.575807 2.135474 -2.053060 4.261373 -11.274434 -0.926241 5.736415 1.235206 -1.629500 2.590700 2.315300 -3.700818 -1.880842 0.040081 -91.362311 11.899516 -11.245257 6.711238 -15.722336 -1.727192 -0.792865 -0.558002 -11.342190 22.100904 20.110345 8.410700 -7.125000 0.000000 0.000000 -5.638000 51.889600 -0.959000 7.347681 2.866025 0.409167 65.804384 20.266484 39.424044 -24.902895 36.371229 -9.202700 0.688711 -0.747877 -16.585823 -26.819289 15.341455 -8.231200 7.125000 0.000000 0.000000 0.330900 -11.772800 0.256400 
